G04 #@! TF.GenerationSoftware,KiCad,Pcbnew,(5.1.5-0-10_14)*
G04 #@! TF.CreationDate,2019-12-20T11:49:40-05:00*
G04 #@! TF.ProjectId,Cbot2,43626f74-322e-46b6-9963-61645f706362,rev?*
G04 #@! TF.SameCoordinates,Original*
G04 #@! TF.FileFunction,Soldermask,Top*
G04 #@! TF.FilePolarity,Negative*
%FSLAX46Y46*%
G04 Gerber Fmt 4.6, Leading zero omitted, Abs format (unit mm)*
G04 Created by KiCad (PCBNEW (5.1.5-0-10_14)) date 2019-12-20 11:49:40*
%MOMM*%
%LPD*%
G04 APERTURE LIST*
%ADD10R,1.900000X1.900000*%
%ADD11O,1.900000X1.900000*%
%ADD12C,3.200000*%
%ADD13R,1.800000X1.800000*%
%ADD14O,1.800000X1.800000*%
%ADD15C,1.600000*%
%ADD16O,1.600000X1.600000*%
%ADD17C,0.100000*%
%ADD18R,1.300000X2.000000*%
%ADD19C,1.800000*%
G04 APERTURE END LIST*
D10*
X86920000Y-65590000D03*
D11*
X86920000Y-63050000D03*
X89460000Y-65590000D03*
X89460000Y-63050000D03*
X92000000Y-65590000D03*
X92000000Y-63050000D03*
X94540000Y-65590000D03*
X94540000Y-63050000D03*
X97080000Y-65590000D03*
X97080000Y-63050000D03*
X99620000Y-65590000D03*
X99620000Y-63050000D03*
X102160000Y-65590000D03*
X102160000Y-63050000D03*
X104700000Y-65590000D03*
X104700000Y-63050000D03*
X107240000Y-65590000D03*
X107240000Y-63050000D03*
X109780000Y-65590000D03*
X109780000Y-63050000D03*
X112320000Y-65590000D03*
X112320000Y-63050000D03*
X114860000Y-65590000D03*
X114860000Y-63050000D03*
X117400000Y-65590000D03*
X117400000Y-63050000D03*
X119940000Y-65590000D03*
X119940000Y-63050000D03*
X122480000Y-65590000D03*
X122480000Y-63050000D03*
X125020000Y-65590000D03*
X125020000Y-63050000D03*
X127560000Y-65590000D03*
X127560000Y-63050000D03*
X130100000Y-65590000D03*
X130100000Y-63050000D03*
X132640000Y-65590000D03*
X132640000Y-63050000D03*
X135180000Y-65590000D03*
X135180000Y-63050000D03*
D12*
X82040000Y-64310000D03*
X140040000Y-64330000D03*
X82040000Y-113320000D03*
X140030000Y-113310000D03*
D13*
X88900000Y-99060000D03*
D14*
X88900000Y-91440000D03*
D10*
X82550000Y-105410000D03*
D11*
X85090000Y-105410000D03*
X92710000Y-113030000D03*
D10*
X90170000Y-113030000D03*
X125730000Y-76200000D03*
D11*
X125730000Y-78740000D03*
X125730000Y-81280000D03*
X125730000Y-83820000D03*
X125730000Y-86360000D03*
D10*
X91440000Y-72390000D03*
D11*
X91440000Y-74930000D03*
X91440000Y-77470000D03*
X137160000Y-77470000D03*
X137160000Y-74930000D03*
D10*
X137160000Y-72390000D03*
D11*
X137160000Y-105410000D03*
X137160000Y-102870000D03*
X137160000Y-100330000D03*
X137160000Y-97790000D03*
D10*
X137160000Y-95250000D03*
X137160000Y-85090000D03*
D11*
X137160000Y-87630000D03*
X137160000Y-90170000D03*
D10*
X130810000Y-109220000D03*
D11*
X130810000Y-111760000D03*
D15*
X97790000Y-81280000D03*
D16*
X97790000Y-73660000D03*
X132080000Y-78740000D03*
D15*
X132080000Y-71120000D03*
X132080000Y-81280000D03*
D16*
X132080000Y-88900000D03*
D13*
X107950000Y-87630000D03*
D14*
X115570000Y-95250000D03*
X107950000Y-90170000D03*
X115570000Y-92710000D03*
X107950000Y-92710000D03*
X115570000Y-90170000D03*
X107950000Y-95250000D03*
X115570000Y-87630000D03*
D17*
G36*
X91796856Y-84491565D02*
G01*
X91828404Y-84496245D01*
X91859343Y-84503994D01*
X91889372Y-84514739D01*
X91918204Y-84528376D01*
X91945560Y-84544772D01*
X91971178Y-84563772D01*
X91994810Y-84585190D01*
X92016228Y-84608822D01*
X92035228Y-84634440D01*
X92051624Y-84661796D01*
X92065261Y-84690628D01*
X92076006Y-84720657D01*
X92083755Y-84751596D01*
X92088435Y-84783144D01*
X92090000Y-84815000D01*
X92090000Y-86165000D01*
X92088435Y-86196856D01*
X92083755Y-86228404D01*
X92076006Y-86259343D01*
X92065261Y-86289372D01*
X92051624Y-86318204D01*
X92035228Y-86345560D01*
X92016228Y-86371178D01*
X91994810Y-86394810D01*
X91971178Y-86416228D01*
X91945560Y-86435228D01*
X91918204Y-86451624D01*
X91889372Y-86465261D01*
X91859343Y-86476006D01*
X91828404Y-86483755D01*
X91796856Y-86488435D01*
X91765000Y-86490000D01*
X91115000Y-86490000D01*
X91083144Y-86488435D01*
X91051596Y-86483755D01*
X91020657Y-86476006D01*
X90990628Y-86465261D01*
X90961796Y-86451624D01*
X90934440Y-86435228D01*
X90908822Y-86416228D01*
X90885190Y-86394810D01*
X90863772Y-86371178D01*
X90844772Y-86345560D01*
X90828376Y-86318204D01*
X90814739Y-86289372D01*
X90803994Y-86259343D01*
X90796245Y-86228404D01*
X90791565Y-86196856D01*
X90790000Y-86165000D01*
X90790000Y-84815000D01*
X90791565Y-84783144D01*
X90796245Y-84751596D01*
X90803994Y-84720657D01*
X90814739Y-84690628D01*
X90828376Y-84661796D01*
X90844772Y-84634440D01*
X90863772Y-84608822D01*
X90885190Y-84585190D01*
X90908822Y-84563772D01*
X90934440Y-84544772D01*
X90961796Y-84528376D01*
X90990628Y-84514739D01*
X91020657Y-84503994D01*
X91051596Y-84496245D01*
X91083144Y-84491565D01*
X91115000Y-84490000D01*
X91765000Y-84490000D01*
X91796856Y-84491565D01*
G37*
G36*
X90526856Y-82421565D02*
G01*
X90558404Y-82426245D01*
X90589343Y-82433994D01*
X90619372Y-82444739D01*
X90648204Y-82458376D01*
X90675560Y-82474772D01*
X90701178Y-82493772D01*
X90724810Y-82515190D01*
X90746228Y-82538822D01*
X90765228Y-82564440D01*
X90781624Y-82591796D01*
X90795261Y-82620628D01*
X90806006Y-82650657D01*
X90813755Y-82681596D01*
X90818435Y-82713144D01*
X90820000Y-82745000D01*
X90820000Y-84095000D01*
X90818435Y-84126856D01*
X90813755Y-84158404D01*
X90806006Y-84189343D01*
X90795261Y-84219372D01*
X90781624Y-84248204D01*
X90765228Y-84275560D01*
X90746228Y-84301178D01*
X90724810Y-84324810D01*
X90701178Y-84346228D01*
X90675560Y-84365228D01*
X90648204Y-84381624D01*
X90619372Y-84395261D01*
X90589343Y-84406006D01*
X90558404Y-84413755D01*
X90526856Y-84418435D01*
X90495000Y-84420000D01*
X89845000Y-84420000D01*
X89813144Y-84418435D01*
X89781596Y-84413755D01*
X89750657Y-84406006D01*
X89720628Y-84395261D01*
X89691796Y-84381624D01*
X89664440Y-84365228D01*
X89638822Y-84346228D01*
X89615190Y-84324810D01*
X89593772Y-84301178D01*
X89574772Y-84275560D01*
X89558376Y-84248204D01*
X89544739Y-84219372D01*
X89533994Y-84189343D01*
X89526245Y-84158404D01*
X89521565Y-84126856D01*
X89520000Y-84095000D01*
X89520000Y-82745000D01*
X89521565Y-82713144D01*
X89526245Y-82681596D01*
X89533994Y-82650657D01*
X89544739Y-82620628D01*
X89558376Y-82591796D01*
X89574772Y-82564440D01*
X89593772Y-82538822D01*
X89615190Y-82515190D01*
X89638822Y-82493772D01*
X89664440Y-82474772D01*
X89691796Y-82458376D01*
X89720628Y-82444739D01*
X89750657Y-82433994D01*
X89781596Y-82426245D01*
X89813144Y-82421565D01*
X89845000Y-82420000D01*
X90495000Y-82420000D01*
X90526856Y-82421565D01*
G37*
D18*
X92710000Y-83420000D03*
D17*
G36*
X113386856Y-74331565D02*
G01*
X113418404Y-74336245D01*
X113449343Y-74343994D01*
X113479372Y-74354739D01*
X113508204Y-74368376D01*
X113535560Y-74384772D01*
X113561178Y-74403772D01*
X113584810Y-74425190D01*
X113606228Y-74448822D01*
X113625228Y-74474440D01*
X113641624Y-74501796D01*
X113655261Y-74530628D01*
X113666006Y-74560657D01*
X113673755Y-74591596D01*
X113678435Y-74623144D01*
X113680000Y-74655000D01*
X113680000Y-76005000D01*
X113678435Y-76036856D01*
X113673755Y-76068404D01*
X113666006Y-76099343D01*
X113655261Y-76129372D01*
X113641624Y-76158204D01*
X113625228Y-76185560D01*
X113606228Y-76211178D01*
X113584810Y-76234810D01*
X113561178Y-76256228D01*
X113535560Y-76275228D01*
X113508204Y-76291624D01*
X113479372Y-76305261D01*
X113449343Y-76316006D01*
X113418404Y-76323755D01*
X113386856Y-76328435D01*
X113355000Y-76330000D01*
X112705000Y-76330000D01*
X112673144Y-76328435D01*
X112641596Y-76323755D01*
X112610657Y-76316006D01*
X112580628Y-76305261D01*
X112551796Y-76291624D01*
X112524440Y-76275228D01*
X112498822Y-76256228D01*
X112475190Y-76234810D01*
X112453772Y-76211178D01*
X112434772Y-76185560D01*
X112418376Y-76158204D01*
X112404739Y-76129372D01*
X112393994Y-76099343D01*
X112386245Y-76068404D01*
X112381565Y-76036856D01*
X112380000Y-76005000D01*
X112380000Y-74655000D01*
X112381565Y-74623144D01*
X112386245Y-74591596D01*
X112393994Y-74560657D01*
X112404739Y-74530628D01*
X112418376Y-74501796D01*
X112434772Y-74474440D01*
X112453772Y-74448822D01*
X112475190Y-74425190D01*
X112498822Y-74403772D01*
X112524440Y-74384772D01*
X112551796Y-74368376D01*
X112580628Y-74354739D01*
X112610657Y-74343994D01*
X112641596Y-74336245D01*
X112673144Y-74331565D01*
X112705000Y-74330000D01*
X113355000Y-74330000D01*
X113386856Y-74331565D01*
G37*
G36*
X112116856Y-72261565D02*
G01*
X112148404Y-72266245D01*
X112179343Y-72273994D01*
X112209372Y-72284739D01*
X112238204Y-72298376D01*
X112265560Y-72314772D01*
X112291178Y-72333772D01*
X112314810Y-72355190D01*
X112336228Y-72378822D01*
X112355228Y-72404440D01*
X112371624Y-72431796D01*
X112385261Y-72460628D01*
X112396006Y-72490657D01*
X112403755Y-72521596D01*
X112408435Y-72553144D01*
X112410000Y-72585000D01*
X112410000Y-73935000D01*
X112408435Y-73966856D01*
X112403755Y-73998404D01*
X112396006Y-74029343D01*
X112385261Y-74059372D01*
X112371624Y-74088204D01*
X112355228Y-74115560D01*
X112336228Y-74141178D01*
X112314810Y-74164810D01*
X112291178Y-74186228D01*
X112265560Y-74205228D01*
X112238204Y-74221624D01*
X112209372Y-74235261D01*
X112179343Y-74246006D01*
X112148404Y-74253755D01*
X112116856Y-74258435D01*
X112085000Y-74260000D01*
X111435000Y-74260000D01*
X111403144Y-74258435D01*
X111371596Y-74253755D01*
X111340657Y-74246006D01*
X111310628Y-74235261D01*
X111281796Y-74221624D01*
X111254440Y-74205228D01*
X111228822Y-74186228D01*
X111205190Y-74164810D01*
X111183772Y-74141178D01*
X111164772Y-74115560D01*
X111148376Y-74088204D01*
X111134739Y-74059372D01*
X111123994Y-74029343D01*
X111116245Y-73998404D01*
X111111565Y-73966856D01*
X111110000Y-73935000D01*
X111110000Y-72585000D01*
X111111565Y-72553144D01*
X111116245Y-72521596D01*
X111123994Y-72490657D01*
X111134739Y-72460628D01*
X111148376Y-72431796D01*
X111164772Y-72404440D01*
X111183772Y-72378822D01*
X111205190Y-72355190D01*
X111228822Y-72333772D01*
X111254440Y-72314772D01*
X111281796Y-72298376D01*
X111310628Y-72284739D01*
X111340657Y-72273994D01*
X111371596Y-72266245D01*
X111403144Y-72261565D01*
X111435000Y-72260000D01*
X112085000Y-72260000D01*
X112116856Y-72261565D01*
G37*
D18*
X114300000Y-73260000D03*
D19*
X118110000Y-82935001D03*
X120610000Y-82935001D03*
D13*
X92710000Y-105410000D03*
D19*
X90210000Y-105410000D03*
D13*
X110490000Y-81280000D03*
D19*
X112990000Y-81280000D03*
D10*
X100330000Y-106680000D03*
D11*
X100330000Y-109220000D03*
X102870000Y-106680000D03*
X102870000Y-109220000D03*
X105410000Y-106680000D03*
X105410000Y-109220000D03*
X107950000Y-106680000D03*
X107950000Y-109220000D03*
X110490000Y-106680000D03*
X110490000Y-109220000D03*
X113030000Y-106680000D03*
X113030000Y-109220000D03*
X115570000Y-106680000D03*
X115570000Y-109220000D03*
X118110000Y-106680000D03*
X118110000Y-109220000D03*
X120650000Y-106680000D03*
X120650000Y-109220000D03*
X123190000Y-106680000D03*
X123190000Y-109220000D03*
X123190000Y-114300000D03*
X123190000Y-111760000D03*
X120650000Y-114300000D03*
X120650000Y-111760000D03*
X118110000Y-114300000D03*
X118110000Y-111760000D03*
X115570000Y-114300000D03*
X115570000Y-111760000D03*
X113030000Y-114300000D03*
X113030000Y-111760000D03*
X110490000Y-114300000D03*
X110490000Y-111760000D03*
X107950000Y-114300000D03*
X107950000Y-111760000D03*
X105410000Y-114300000D03*
X105410000Y-111760000D03*
X102870000Y-114300000D03*
X102870000Y-111760000D03*
X100330000Y-114300000D03*
D10*
X100330000Y-111760000D03*
X100330000Y-101600000D03*
D11*
X100330000Y-104140000D03*
X102870000Y-101600000D03*
X102870000Y-104140000D03*
X105410000Y-101600000D03*
X105410000Y-104140000D03*
X107950000Y-101600000D03*
X107950000Y-104140000D03*
X110490000Y-101600000D03*
X110490000Y-104140000D03*
X113030000Y-101600000D03*
X113030000Y-104140000D03*
X115570000Y-101600000D03*
X115570000Y-104140000D03*
X118110000Y-101600000D03*
X118110000Y-104140000D03*
X120650000Y-101600000D03*
X120650000Y-104140000D03*
X123190000Y-101600000D03*
X123190000Y-104140000D03*
M02*
