M48
; DRILL file {KiCad (5.1.5-0-10_14)} date Friday, December 20, 2019 at 11:45:30 AM
; FORMAT={3:3/ absolute / metric / suppress leading zeros}
; #@! TF.CreationDate,2019-12-20T11:45:30-05:00
; #@! TF.GenerationSoftware,Kicad,Pcbnew,(5.1.5-0-10_14)
FMAT,2
METRIC,TZ
T1C0.700
T2C0.750
T3C0.800
T4C1.000
T5C2.750
%
G90
G05
T1
X97790Y-73660
X97790Y-81280
X132080Y-71120
X132080Y-78740
X132080Y-81280
X132080Y-88900
T2
X90170Y-83820
X91440Y-85090
X92710Y-83820
X111760Y-73660
X113030Y-74930
X114300Y-73660
T3
X107950Y-87630
X107950Y-90170
X107950Y-92710
X107950Y-95250
X115570Y-87630
X115570Y-90170
X115570Y-92710
X115570Y-95250
X90210Y-105410
X92710Y-105410
X118110Y-82935
X120610Y-82935
X110490Y-81280
X112990Y-81280
X88900Y-91440
X88900Y-99060
T4
X137160Y-85090
X137160Y-87630
X137160Y-90170
X130810Y-109220
X130810Y-111760
X90170Y-113030
X92710Y-113030
X137160Y-72390
X137160Y-74930
X137160Y-77470
X100330Y-101600
X100330Y-104140
X102870Y-101600
X102870Y-104140
X105410Y-101600
X105410Y-104140
X107950Y-101600
X107950Y-104140
X110490Y-101600
X110490Y-104140
X113030Y-101600
X113030Y-104140
X115570Y-101600
X115570Y-104140
X118110Y-101600
X118110Y-104140
X120650Y-101600
X120650Y-104140
X123190Y-101600
X123190Y-104140
X100330Y-106680
X100330Y-109220
X102870Y-106680
X102870Y-109220
X105410Y-106680
X105410Y-109220
X107950Y-106680
X107950Y-109220
X110490Y-106680
X110490Y-109220
X113030Y-106680
X113030Y-109220
X115570Y-106680
X115570Y-109220
X118110Y-106680
X118110Y-109220
X120650Y-106680
X120650Y-109220
X123190Y-106680
X123190Y-109220
X137160Y-95250
X137160Y-97790
X137160Y-100330
X137160Y-102870
X137160Y-105410
X82550Y-105410
X85090Y-105410
X91440Y-72390
X91440Y-74930
X91440Y-77470
X100330Y-111760
X100330Y-114300
X102870Y-111760
X102870Y-114300
X105410Y-111760
X105410Y-114300
X107950Y-111760
X107950Y-114300
X110490Y-111760
X110490Y-114300
X113030Y-111760
X113030Y-114300
X115570Y-111760
X115570Y-114300
X118110Y-111760
X118110Y-114300
X120650Y-111760
X120650Y-114300
X123190Y-111760
X123190Y-114300
X125730Y-76200
X125730Y-78740
X125730Y-81280
X125730Y-83820
X125730Y-86360
X86920Y-63050
X86920Y-65590
X89460Y-63050
X89460Y-65590
X92000Y-63050
X92000Y-65590
X94540Y-63050
X94540Y-65590
X97080Y-63050
X97080Y-65590
X99620Y-63050
X99620Y-65590
X102160Y-63050
X102160Y-65590
X104700Y-63050
X104700Y-65590
X107240Y-63050
X107240Y-65590
X109780Y-63050
X109780Y-65590
X112320Y-63050
X112320Y-65590
X114860Y-63050
X114860Y-65590
X117400Y-63050
X117400Y-65590
X119940Y-63050
X119940Y-65590
X122480Y-63050
X122480Y-65590
X125020Y-63050
X125020Y-65590
X127560Y-63050
X127560Y-65590
X130100Y-63050
X130100Y-65590
X132640Y-63050
X132640Y-65590
X135180Y-63050
X135180Y-65590
T5
X140030Y-113310
X82040Y-64310
X140040Y-64330
X82040Y-113320
T0
M30
